# xmcd
#
# Track frame offsets: 
#        150
#        18373
#        40522
#        58241
#        77444
#        95099
#        112508
#        132380
#        147494
#        167234
#        185640
#        202612
#        221086
#
# Disc length: 3228 seconds
#
# Revision: 0
# Processed by: cddbd v1.5.2PL0 Copyright (c) Steve Scherf et al.
# Submitted via: ExactAudioCopy v0.99pb4
#
DISCID=af0c9a0d
DTITLE=Taylor Swift - Fearless
DYEAR=2008
DGENRE=Country
TTITLE0=Fearless
TTITLE1=Fifteen
TTITLE2=Love Story
TTITLE3=Hey Stephen
TTITLE4=White Horse
TTITLE5=You Belong With Me
TTITLE6=Breathe (Feat. Colbie Caillat)
TTITLE7=Tell Me Why
TTITLE8=You're Not Sor
TTITLE9=The Way I Loved Yo
TTITLE10=Forever and Always
TTITLE11=The Best Day
TTITLE12=Change
EXTD=
EXTT0=
EXTT1=
EXTT2=
EXTT3=
EXTT4=
EXTT5=
EXTT6=
EXTT7=
EXTT8=
EXTT9=
EXTT10=
EXTT11=
EXTT12=
PLAYORDER=
